<mxfile host="app.diagrams.net" modified="2024-03-20T02:39:48.076Z" agent="Mozilla/5.0 (Macintosh; Intel Mac OS X 10_15_7) AppleWebKit/537.36 (KHTML, like Gecko) Chrome/122.0.0.0 Safari/537.36" etag="4P6JeQvOw8z2fzzYJt-o" version="24.0.7" type="github">
  <diagram name="第 1 页" id="Xc58GoZkTKpMoaNWe0kn">
    <mxGraphModel dx="2901" dy="1146" grid="1" gridSize="10" guides="1" tooltips="1" connect="1" arrows="1" fold="1" page="1" pageScale="1" pageWidth="827" pageHeight="1169" math="0" shadow="0">
      <root>
        <mxCell id="0" />
        <mxCell id="1" parent="0" />
        <mxCell id="4bfxapxP1zuWlcAlrGS5-1" value="" style="edgeStyle=orthogonalEdgeStyle;rounded=0;orthogonalLoop=1;jettySize=auto;html=1;fontSize=16;" edge="1" parent="1" source="4bfxapxP1zuWlcAlrGS5-2" target="4bfxapxP1zuWlcAlrGS5-4">
          <mxGeometry relative="1" as="geometry" />
        </mxCell>
        <mxCell id="4bfxapxP1zuWlcAlrGS5-2" value="水印图像" style="rounded=0;whiteSpace=wrap;html=1;fontSize=16;" vertex="1" parent="1">
          <mxGeometry x="-730" y="320" width="100" height="50" as="geometry" />
        </mxCell>
        <mxCell id="4bfxapxP1zuWlcAlrGS5-3" value="" style="edgeStyle=orthogonalEdgeStyle;rounded=0;orthogonalLoop=1;jettySize=auto;html=1;fontSize=16;" edge="1" parent="1" source="4bfxapxP1zuWlcAlrGS5-4" target="4bfxapxP1zuWlcAlrGS5-6">
          <mxGeometry relative="1" as="geometry" />
        </mxCell>
        <mxCell id="4bfxapxP1zuWlcAlrGS5-4" value="DCT 变换" style="rounded=0;whiteSpace=wrap;html=1;fontSize=16;" vertex="1" parent="1">
          <mxGeometry x="-580" y="320" width="100" height="50" as="geometry" />
        </mxCell>
        <mxCell id="4bfxapxP1zuWlcAlrGS5-5" value="" style="edgeStyle=orthogonalEdgeStyle;rounded=0;orthogonalLoop=1;jettySize=auto;html=1;fontSize=16;" edge="1" parent="1" source="4bfxapxP1zuWlcAlrGS5-6" target="4bfxapxP1zuWlcAlrGS5-8">
          <mxGeometry relative="1" as="geometry" />
        </mxCell>
        <mxCell id="4bfxapxP1zuWlcAlrGS5-6" value="识别频域中的隐藏信息" style="rounded=0;whiteSpace=wrap;html=1;fontSize=16;" vertex="1" parent="1">
          <mxGeometry x="-430" y="320" width="100" height="50" as="geometry" />
        </mxCell>
        <mxCell id="4bfxapxP1zuWlcAlrGS5-7" value="" style="edgeStyle=orthogonalEdgeStyle;rounded=0;orthogonalLoop=1;jettySize=auto;html=1;fontSize=16;" edge="1" parent="1" source="4bfxapxP1zuWlcAlrGS5-8" target="4bfxapxP1zuWlcAlrGS5-9">
          <mxGeometry relative="1" as="geometry" />
        </mxCell>
        <mxCell id="4bfxapxP1zuWlcAlrGS5-8" value="解码产生水印串" style="rounded=0;whiteSpace=wrap;html=1;fontSize=16;" vertex="1" parent="1">
          <mxGeometry x="-260" y="320" width="100" height="50" as="geometry" />
        </mxCell>
        <mxCell id="4bfxapxP1zuWlcAlrGS5-9" value="判断水印信息的有效性" style="rounded=0;whiteSpace=wrap;html=1;fontSize=16;" vertex="1" parent="1">
          <mxGeometry x="-90" y="320" width="100" height="50" as="geometry" />
        </mxCell>
      </root>
    </mxGraphModel>
  </diagram>
</mxfile>
